<svg id="Layer_1" data-name="Layer 1" xmlns="http://www.w3.org/2000/svg" viewBox="0 0 444 128"><defs><style>.cls-1{fill:#fff;}</style></defs><title>unige-logo</title><path class="cls-1" d="M28.3,30.12l2.76,3.57,2-1.57-4.49-5.81L27,27.53c.63,1-.27,2.16-1.39,3l.81,1Z"/><path class="cls-1" d="M35.62,26.77a1.92,1.92,0,0,1,1.15-1.22c.89-.46,1.62-.28,1.95.36s-.09,1.38-.93,1.8c-.64.34-1.56.43-1.84-.08l-2.15,1.1c.93,1.5,2.73,1.27,4.66.28s3.2-2.67,2.37-4.28c-.69-1.36-2.24-1.54-4-.61a3.34,3.34,0,0,0-1.48,1.36h0L35,24.13l3.91-2-.69-1.35-5.57,2.86,1,4.14Z"/><path class="cls-1" d="M82.29,24.51a3.34,3.34,0,0,0-2-.41h0l.94-1,3.92,2,.69-1.35-5.59-2.82-2.74,3.27,2,1a1.86,1.86,0,0,1,1.66.21c.89.45,1.17,1.15.85,1.79s-1.17.73-2,.31c-.64-.33-1.25-1-1-1.54l-2.15-1.09c-.67,1.63.58,3,2.51,3.93s4,1,4.86-.6C84.88,26.78,84.11,25.42,82.29,24.51Z"/><path class="cls-1" d="M91.19,27.32c-1.63-1.27-3.66-1.48-4.62-.23s-.46,2.8,1.09,4a2.88,2.88,0,0,0,2.24.73l0,0a1.75,1.75,0,0,1-2.6.35,2.06,2.06,0,0,1-.57-.65.82.82,0,0,1-.07-.71L84.9,29.45c-.56,1.29.08,2.59,1.51,3.7,2.51,1.93,4.55,1.21,5.85-.46S93.48,29.08,91.19,27.32Zm-.25,3.12c-.41.52-1.23.57-2-.06S88,29,88.39,28.44a1.41,1.41,0,0,1,2,0C91.16,29.13,91.34,29.92,90.94,30.44Z"/><path class="cls-1" d="M10,57.45c1.29.43,2.23-.82,3-2.11s1.32-2.67,1.87-2.49.39.88.21,1.42c-.26.77-.74,1.52-1.38,1.27l-.83,2.51c1.62.52,2.95-1.18,3.58-3.1s.7-4.13-.87-4.65c-1.31-.43-2.25.86-3,2.14s-1.33,2.63-2,2.42-.47-1-.22-1.78c.35-1.07.86-1.68,1.71-1.45L13,49.11c-1.84-.59-3.21,1.13-3.94,3.34S8.22,56.85,10,57.45Z"/><path class="cls-1" d="M9.21,70.11l.2-2.64c-.86-.16-1.33-.91-1.23-2.15a2.13,2.13,0,0,1,2.41-2.18,2.14,2.14,0,0,1,2.05,2.53c-.09,1.1-.55,1.87-1.32,2l-.2,2.64c1.81.07,3-2.22,3.19-4.41.24-3.06-1.34-5.18-3.52-5.35s-4.06,1.69-4.3,4.75C6.3,67.82,7.28,69.83,9.21,70.11Z"/><polygon class="cls-1" points="15 78.61 12.3 79.08 11.71 75.64 14.41 75.17 13.96 72.56 6.54 73.84 6.99 76.45 10.05 75.93 10.64 79.36 7.58 79.89 8.03 82.5 15.45 81.22 15 78.61"/><path class="cls-1" d="M18.13,87.59c-1.31-2.92-3.63-3.86-5.62-3S9.67,87.88,11,90.8s3.63,3.86,5.62,3S19.44,90.51,18.13,87.59Zm-2.61,3.76a2.13,2.13,0,0,1-3-1.24A2.13,2.13,0,0,1,13.59,87a2.12,2.12,0,0,1,3,1.24A2.13,2.13,0,0,1,15.52,91.35Z"/><polygon class="cls-1" points="22.81 95.92 21.2 93.81 15.21 98.37 19.69 104.25 21.03 103.23 18.16 99.46 22.81 95.92"/><path class="cls-1" d="M21.07,105.87l2.06,1.77,1.37-.6,2.69,2.31-.41,1.43,2.1,1.8,2-8.19-2-1.75Zm6.59,2-1.75-1.5,2.59-1.25,0,0Z"/><path class="cls-1" d="M49.83,115c1.05.22,1.8.77,1.76,1.42l2.59.54c.14-1.9-1.89-3.17-4-3.6-3-.62-5.32.68-5.76,2.81s1.16,4.25,4.17,4.87a4,4,0,0,0,3-.38v.83l1.67.35.83-4-4.18-.86-.29,1.42,1.81.38c-.28.64-1.24.9-2.52.64a2.24,2.24,0,1,1,.91-4.38Z"/><polygon class="cls-1" points="60.74 120.28 60.67 118.85 65.65 118.6 65.57 117.08 60.59 117.33 60.53 116.02 65.97 115.74 65.89 114.17 57.8 114.58 58.19 122.1 66.42 121.68 66.33 120 60.74 120.28"/><polygon class="cls-1" points="74.71 111.84 76.09 116.27 76.06 116.28 71.32 112.9 68.72 113.71 70.96 120.89 73.34 120.15 71.94 115.67 71.97 115.66 76.73 119.09 79.33 118.28 77.09 111.1 74.71 111.84"/><polygon class="cls-1" points="85.17 113.36 84.41 112.14 88.65 109.52 87.85 108.23 83.61 110.85 82.92 109.73 87.56 106.86 86.73 105.53 79.84 109.78 83.8 116.19 90.81 111.86 89.92 110.42 85.17 113.36"/><polygon class="cls-1" points="93.03 99.6 95.6 104.96 95.58 104.98 90.21 102.45 88.26 104.41 95.86 107.44 98.01 105.27 94.98 97.64 93.03 99.6"/><polygon class="cls-1" points="102.55 96.71 101.32 95.97 103.91 91.71 102.61 90.92 100.02 95.18 98.9 94.5 101.72 89.84 100.38 89.02 96.18 95.95 102.62 99.85 106.89 92.8 105.45 91.93 102.55 96.71"/><polygon class="cls-1" points="103.4 80.38 107.84 81.72 107.83 81.75 102.37 83.79 101.59 86.39 108.8 88.56 109.51 86.18 105.02 84.83 105.03 84.8 110.54 82.77 111.32 80.17 104.12 78 103.4 80.38"/><path class="cls-1" d="M110.09,66.92c-1.36-.06-1.93,1.4-2.3,2.85s-.54,2.92-1.12,2.9-.61-.74-.59-1.31c0-.81.3-1.67,1-1.59l.12-2.65c-1.7-.06-2.51,1.94-2.61,4s.46,4.17,2.11,4.24c1.38.06,1.93-1.44,2.3-2.87s.56-2.9,1.22-2.87.74.86.7,1.65c-.05,1.13-.37,1.85-1.25,1.87l-.12,2.65c1.93.07,2.78-2,2.88-4.29S112,67,110.09,66.92Z"/><rect class="cls-1" x="104.27" y="60.68" width="7.53" height="2.65" transform="translate(-7.74 16.06) rotate(-8.21)"/><path class="cls-1" d="M105.69,57.56c1.31-.45,1.27-2.05,1.09-3.52s-.54-2.9.09-3.12,1,.53,1.25,1.29c.37,1.06.34,1.85-.48,2.19l.86,2.51c1.82-.64,1.87-2.84,1.11-5s-2-4-3.82-3.37c-1.29.44-1.28,2-1.1,3.49s.57,2.92,0,3.11-.84-.46-1-1c-.27-.77-.34-1.66.32-1.84l-.86-2.51c-1.6.57-1.62,2.73-1,4.64S104.13,58.09,105.69,57.56Z"/><path class="cls-1" d="M35.64,112.48a1.8,1.8,0,1,0,2.52-.35A1.8,1.8,0,0,0,35.64,112.48Z"/><path class="cls-1" d="M21,40.76a1.8,1.8,0,1,0-2.51.39A1.8,1.8,0,0,0,21,40.76Z"/><path class="cls-1" d="M97.33,38.65a1.79,1.79,0,1,0,2.51-.4A1.78,1.78,0,0,0,97.33,38.65Z"/><polygon class="cls-1" points="63.72 19.06 62.26 21.34 65.83 21.34 65.83 20.24 64.42 20.25 65.2 19.08 64.42 17.88 65.81 17.87 65.81 16.78 62.26 16.78 63.72 19.06"/><polygon class="cls-1" points="56.01 20.25 55.13 20.25 55.13 17.87 55.95 17.88 55.95 16.78 53.01 16.78 53.01 17.88 53.83 17.87 53.83 20.25 52.96 20.25 52.96 21.34 56.01 21.34 56.01 20.25"/><polygon class="cls-1" points="60.16 18.39 58.3 18.39 58.31 16.77 56.95 16.77 56.95 21.34 58.31 21.34 58.3 19.52 60.16 19.52 60.16 21.34 61.52 21.34 61.52 16.77 60.16 16.77 60.16 18.39"/><path class="cls-1" d="M58.66,14.06a.56.56,0,0,1,.61-.57.56.56,0,0,1,.57.57v1.62h2.54V14.32H60.84V14c0-1-.46-1.76-1.57-1.76a1.44,1.44,0,0,0-1.55,1.29c0,.18,0,.36,0,.54v.28H56.14v1.36h2.52Z"/><path class="cls-1" d="M59.27,22.42a.82.82,0,0,0-.82.82.82.82,0,0,0,1.64,0A.82.82,0,0,0,59.27,22.42Z"/><path class="cls-1" d="M71.89,11.54l1.2-1.48-7,1,1.11-6.94L61.65,8.63,59.11,2,56.57,8.63,51.05,4.14l1.12,7-7-1.13,1.22,1.51a58.92,58.92,0,1,0,25.54,0ZM59.24,10.1a8.08,8.08,0,1,1-8.09,8.08A8.09,8.09,0,0,1,59.24,10.1Zm7.44,18.28A41.38,41.38,0,0,1,89.22,40.65H85.43v2.82H82V40.65H77.29v3.9H74.52s0-5.94,0-6a2.43,2.43,0,1,0-4.85,0c0,.06,0,31.47,0,31.47L64.9,74.45v2.34a6.31,6.31,0,0,0-4.76,3.51V32.35l1.61-4.65,5.43,4.42Zm2.24,67.88a3.21,3.21,0,0,0,1.17,6.21h4a3.21,3.21,0,0,0,1.17-6.21A14,14,0,0,0,84.74,83a6.3,6.3,0,0,0-5.41-6.22V74.45L74.52,70V60.79h2.77v3.9H82V61.75h3.45v2.94h4.69V54.27H85.43v2.52H82V54.27H78.09v-3.2H82V48.55h3.45v2.52h4.69V41.62a41.37,41.37,0,0,1-30,68.83V87.19A14,14,0,0,0,68.92,96.26ZM62.74,83a3.06,3.06,0,0,1,2.52-3,3.43,3.43,0,0,0,3.42,3.21h6.88A3.43,3.43,0,0,0,79,80a3.06,3.06,0,0,1,2.51,3c0,5.8-4,9.3-9.37,10.63C66.73,92.31,62.74,88.81,62.74,83ZM31.46,52.32a1.67,1.67,0,0,0-.37,1,1.74,1.74,0,0,0,.18.76l-10.71,0c.47-1.21,1-2.4,1.58-3.55ZM24.7,46.15a42.59,42.59,0,0,1,4-5.13,13.28,13.28,0,0,0,4.52,6.68,1.6,1.6,0,0,0-.69.78,1.71,1.71,0,0,0-.1.67ZM20.85,59.89l10.7-2a1.73,1.73,0,0,0,.07.87,1.86,1.86,0,0,0,.32.5L21.4,63.37a3,3,0,0,0-1,4.08,2.93,2.93,0,0,0,4,1l9.26-5.72a1.73,1.73,0,0,0,.39.79,1.6,1.6,0,0,0,.47.35l-8.35,7.63a2.93,2.93,0,1,0,4.6,3.62l6.65-8.78a1.47,1.47,0,0,0,.62.59,1.45,1.45,0,0,0,.45.13l.1.07L33.94,76.4a2.84,2.84,0,1,0,5.42,1.66L42,68.72a12.8,12.8,0,0,0,3.63.53,10.07,10.07,0,0,0,2.65-.31c0,1.68,0,3.29,0,3.44L39.81,81.6c-1.46,1.19-2,1.26-2.93.31l-.28-.27-2.58,2,.35.35a5,5,0,0,0,3.13,1.77l-3.6,1.89c-.28-.29-1.62-1.67-2.32-2.41a3.5,3.5,0,0,0-7,.2v.18L25.92,87V85.93a.92.92,0,0,1,.26-.63.91.91,0,0,1,1.26,0s1,1.13,1.72,1.87h0l.28.29.33.36h0l.78.8h-1a3.48,3.48,0,0,0-4.8.32,3.45,3.45,0,0,0-.87,1.76,41.34,41.34,0,0,1-5-31.27A2.25,2.25,0,0,0,20.85,59.89Zm4.77,32.66a1.13,1.13,0,0,1,.3-.74,1.1,1.1,0,0,1,.78-.36h2.52a4.4,4.4,0,0,0-2.94,2.3,4.78,4.78,0,0,1-.66-1.17Zm3.22,3.68a.85.85,0,0,1,.39-.55l5.29-3L36,94.21l0,0,.37.34.27.27h0l1.88,1.74a.88.88,0,0,1-.64,1.49H36.81l1.35,1.34h.18a3.5,3.5,0,0,0,.2-7l-1.3-1.29L54.1,80.42c-.46,5.13-4.88,11.14-9.05,14.74a8.33,8.33,0,0,0-2.64,5.89,5.5,5.5,0,0,0,1.41,3.87,2.53,2.53,0,0,0,2.78.55l.59-.26-.46-.46a4.44,4.44,0,0,1-1-3,5.05,5.05,0,0,1,1.43-3.91L48.35,99a9.22,9.22,0,0,0-.58,3.17,7.27,7.27,0,0,0,1.93,5.13c.25.25,2.92,2.47,4,2.09l.81-.27-.69-.5A11,11,0,0,1,51.78,106a5.84,5.84,0,0,1-.55-2.49A6.47,6.47,0,0,1,53.16,99c.07-.1,3-7.31,4.48-10.79,0,.08,0,.68,0,.68,0,.82,0,1.63,0,2.42,0,4.2-.25,7.93-2.1,9.78a9,9,0,0,1-3.28,1.75l.56.65A3.31,3.31,0,0,0,55.21,105a2,2,0,0,0,.91-.35c.08,3.28.7,4.57,1.8,5.81A41.26,41.26,0,0,1,29.69,98.12L29,96.89a.86.86,0,0,1-.14-.46A.69.69,0,0,1,28.84,96.23ZM51,37.42l1-1.69H47.91L48.39,34a1.54,1.54,0,0,0-1.54-1.54,1.43,1.43,0,0,0-.58.12,1.83,1.83,0,0,0,.06-.42,1,1,0,0,0-2,0,1.83,1.83,0,0,0,.06.42,1.43,1.43,0,0,0-.58-.12A1.54,1.54,0,0,0,42.24,34l.48,1.76H41.64A1.54,1.54,0,0,0,40.13,37a2.77,2.77,0,0,0-.71-.1,2.53,2.53,0,0,0-2.53,2.53,2.58,2.58,0,0,0,.31,1.2,2.53,2.53,0,0,1,4.3-.23,1.76,1.76,0,0,1,.14.23,2.41,2.41,0,0,1,.25.8H36.78a2.53,2.53,0,0,1-2.53-2.53v1.63A2.53,2.53,0,0,0,36.78,43h4.85a2.53,2.53,0,0,1-2.21,1.29h-.15a2.53,2.53,0,0,0,4.44-.54h6.85a2.53,2.53,0,0,1,2.53,2.53,3.12,3.12,0,0,1-.65,2.26l-.63.94L47.5,56.16a2.52,2.52,0,0,1-3.51.66,2.58,2.58,0,0,1-.67-3.56,2.71,2.71,0,0,0,1.21-2.91A2.81,2.81,0,0,0,41.46,48l-.85,0a9.69,9.69,0,0,1-10-8.84,41.34,41.34,0,0,1,21-10.76L51,32.11l5.5-4.46,1.85,4.77V39.8Zm8.13,87.07A55.41,55.41,0,0,1,48.85,14.63l.77.95L43,18.12l6.66,2.55-4.5,5.53,7-1.12-.23,1.45a43.14,43.14,0,1,0,14.5,0l-.19-1.42,6.85,1.1-4.31-5.6,6.48-2.48-6.55-2.67.68-.84A55.41,55.41,0,0,1,59.16,124.49Z"/><path class="cls-1" d="M154.87,57.61c-12.76,0-15.64-7.32-15.64-15.46V14.32H147V41.64c0,5.37,1.68,9.15,8.39,9.15,6,0,8.52-2.65,8.52-9.9V14.32h7.73V40.38C171.66,52,165.54,57.61,154.87,57.61Z"/><path class="cls-1" d="M203,56.92S187.72,29,186.52,26.25c.24,3.66.36,10.35.36,15.46V56.92h-7.55V14.32h9.9s15,27.14,16.48,30.35c-.3-4.29-.42-11.86-.42-17.1V14.32h7.55v42.6Z"/><path class="cls-1" d="M222,56.92V14.32h7.79v42.6Z"/><path class="cls-1" d="M257.85,56.92h-9l-14.09-42.6h8.51l7.85,24.93c.78,2.39,1.68,5.24,2.4,8.33h.12a81.88,81.88,0,0,1,2.4-8.84l8-24.42h8Z"/><path class="cls-1" d="M277.31,56.92V14.32h22.24V21.2H285.19V31.68h13.63v6.68H285.19V49.91h14.36v7Z"/><path class="cls-1" d="M327.34,56.92,316.07,39.31h-.3V56.92H308V14.32c3.18-.19,6.95-.25,11.63-.25,8.93,0,14.69,3.28,14.69,12,0,6.31-4.2,10.85-10.31,11.86,1.14,1.58,2.27,3.22,3.29,4.67L337,56.92Zm-8.51-36.16a20.48,20.48,0,0,0-3.06.19v12.3a25.7,25.7,0,0,0,2.82.13c4.68,0,7.55-2.52,7.55-6.5S323.75,20.76,318.83,20.76Z"/><path class="cls-1" d="M350.17,57.61a31.82,31.82,0,0,1-8.27-1l.48-7.64a26.66,26.66,0,0,0,8.45,1.52c3.95,0,7-1.7,7-5.62,0-8.14-17-4.41-17-18.42,0-7.57,5.69-12.81,15.4-12.81a42.52,42.52,0,0,1,7.32.76l-.42,7.19a25.5,25.5,0,0,0-7.26-1.14c-4.49,0-6.77,2.15-6.77,5.18,0,7.63,17,4.79,17,18.11C366.17,51.74,360.12,57.61,350.17,57.61Z"/><path class="cls-1" d="M372.47,56.92V14.32h7.79v42.6Z"/><path class="cls-1" d="M403.88,21.33V56.92h-7.8V21.33H385.59v-7h28.78v7Z"/><path class="cls-1" d="M420.52,56.92V14.32h23.16V21.2H428.73V31.68h14.19v6.68H428.73V49.91h14.95v7Zm8.65-45.37-2.78-4.61,11-6.94,3.35,5.55Z"/><path class="cls-1" d="M151.31,125.12c-4.42,0-8.27-.19-11.86-.31V82.34c3.34-.13,8.52-.32,13.75-.32,13.19,0,21.58,5.87,21.58,20.83C174.78,117.49,165.19,125.12,151.31,125.12Zm1.33-36.22c-1.9,0-3.66.07-5,.19V117.8a29.71,29.71,0,0,0,4.48.32c8,0,13.82-4.55,13.82-14.64C166,94.33,162.35,88.9,152.64,88.9Z"/><path class="cls-1" d="M180.34,124.87V82.28h23.15v6.88h-15V99.63h14.2v6.69h-14.2v11.54h15v7Z"/><path class="cls-1" d="M262.24,91.11A31.68,31.68,0,0,0,250.94,89c-8.39,0-14.45,5.3-14.45,14.82,0,9,4.93,14.33,13.57,14.33a18.36,18.36,0,0,0,5.43-.76V102.53h8.2v20.32a40.31,40.31,0,0,1-14.58,2.65c-13.5,0-21.51-8-21.51-21,0-13.38,9.08-22.9,23.85-22.9a43.12,43.12,0,0,1,12.05,1.83Z"/><path class="cls-1" d="M272.4,124.87V82.28h23.15v6.88H280.6V99.63h14.2v6.69H280.6v11.54h14.95v7Z"/><path class="cls-1" d="M329,124.87S312.91,97,311.65,94.2c.25,3.66.37,10.35.37,15.46v15.21h-7.95V82.28h10.44s15.75,27.13,17.33,30.35c-.32-4.29-.45-11.86-.45-17.1V82.28h7.95v42.59Z"/><path class="cls-1" d="M347.86,124.87V82.28H371v6.88H356.07V99.63h14.19v6.69H356.07v11.54H371v7Zm14.07-45.31-11.61-6L353.8,68l11,6.94Z"/><path class="cls-1" d="M400.36,124.87H390.9L376.07,82.28h9l8.26,24.92c.82,2.4,1.77,5.24,2.53,8.33H396a78.06,78.06,0,0,1,2.52-8.83l8.39-24.42h8.39Z"/><path class="cls-1" d="M420.62,124.87V82.28h23.15v6.88H428.82V99.63H443v6.69h-14.2v11.54h14.95v7Z"/></svg>