<svg id="Layer_1" data-name="Layer 1" xmlns="http://www.w3.org/2000/svg" viewBox="0 0 325 128"><defs><style>.cls-1{fill:#fff;}</style></defs><title>unige-logo</title><path class="cls-1" d="M121.89,46.75c-7.85,0-9.62-4.49-9.62-9.5V20.15h4.79V36.94c0,3.3,1,5.63,5.16,5.63,3.68,0,5.23-1.63,5.23-6.09V20.15h4.75v16C132.2,43.3,128.44,46.75,121.89,46.75Z"/><path class="cls-1" d="M151.32,46.33s-9.24-17.14-10-18.85c.15,2.25.22,6.36.22,9.5v9.35h-4.64V20.15h6.22s9.07,16.68,10,18.65c-.19-2.63-.26-7.29-.26-10.51V20.15h4.64V46.33Z"/><path class="cls-1" d="M163.15,46.33V20.15h4.78V46.33Z"/><path class="cls-1" d="M185.17,46.33h-5.53L171,20.15h5.23L181,35.47c.48,1.47,1,3.22,1.48,5.12h.07a52.79,52.79,0,0,1,1.47-5.43l4.91-15h4.89Z"/><path class="cls-1" d="M197.13,46.33V20.15H210.8v4.23H202v6.44h8.38v4.11H202V42h8.83v4.31Z"/><path class="cls-1" d="M227.88,46.33,221,35.51h-.19V46.33H216V20.15c2-.11,4.27-.15,7.15-.15,5.49,0,9,2,9,7.36a7.19,7.19,0,0,1-6.34,7.3c.7,1,1.4,2,2,2.87l6,8.8Zm-5.23-22.22a14.2,14.2,0,0,0-1.88.11v7.57c.33,0,1,.07,1.73.07,2.88,0,4.64-1.55,4.64-4S225.67,24.11,222.65,24.11Z"/><path class="cls-1" d="M241.91,46.75a19.27,19.27,0,0,1-5.08-.62l.29-4.69a16.27,16.27,0,0,0,5.2.93c2.43,0,4.31-1,4.31-3.45,0-5-10.43-2.71-10.43-11.32,0-4.66,3.5-7.88,9.47-7.88a26,26,0,0,1,4.49.47l-.26,4.42a15.74,15.74,0,0,0-4.45-.7c-2.77,0-4.17,1.32-4.17,3.18,0,4.7,10.47,2.95,10.47,11.13C251.75,43.15,248,46.75,241.91,46.75Z"/><path class="cls-1" d="M255.61,46.33V20.15h4.79V46.33Z"/><path class="cls-1" d="M274.92,24.46V46.33h-4.79V24.46h-6.45V20.15h17.68v4.31Z"/><path class="cls-1" d="M285.15,46.33V20.15h14.23v4.23h-9.19v6.44h8.72v4.11h-8.72V42h9.19v4.31Zm5.31-27.88-1.71-2.84,6.79-4.26,2.06,3.41Z"/><path class="cls-1" d="M119.7,88.24c-2.72,0-5.08-.11-7.29-.19V62c2-.08,5.23-.19,8.45-.19,8.11,0,13.26,3.61,13.26,12.8C134.12,83.55,128.23,88.24,119.7,88.24ZM120.51,66c-1.16,0-2.25,0-3.06.11V83.75a19.21,19.21,0,0,0,2.75.19c4.93,0,8.49-2.79,8.49-9C128.69,69.32,126.48,66,120.51,66Z"/><path class="cls-1" d="M137.54,88.09V61.91h14.23v4.23h-9.19v6.44h8.72v4.11h-8.72v7.1h9.19v4.3Z"/><path class="cls-1" d="M187.87,67.34A19.47,19.47,0,0,0,180.93,66c-5.16,0-8.88,3.26-8.88,9.12,0,5.54,3,8.8,8.34,8.8a11.17,11.17,0,0,0,3.33-.46V74.36h5V86.85a24.66,24.66,0,0,1-9,1.63c-8.3,0-13.22-4.89-13.22-12.88,0-8.22,5.58-14.07,14.66-14.07a26.67,26.67,0,0,1,7.41,1.12Z"/><path class="cls-1" d="M194.11,88.09V61.91h14.23v4.23h-9.19v6.44h8.73v4.11h-8.73v7.1h9.19v4.3Z"/><path class="cls-1" d="M229.11,88.09S219,71,218.23,69.24c.16,2.25.24,6.36.24,9.5v9.35h-4.89V61.91h6.19s9.9,16.68,10.87,18.66c-.19-2.64-.27-7.29-.27-10.51V61.91h4.89V88.09Z"/><path class="cls-1" d="M240.49,88.09V61.91h14.23v4.23h-9.19v6.44h8.73v4.11h-8.73v7.1h9.19v4.3Zm8.65-27.84L242,56.56l2.13-3.45,6.75,4.27Z"/><path class="cls-1" d="M272.76,88.09h-5.82l-9.11-26.18h5.5l5.08,15.32c.51,1.48,1.09,3.22,1.56,5.12H270a50.69,50.69,0,0,1,1.55-5.43l5.16-15h5.16Z"/><path class="cls-1" d="M285.21,88.09V61.91h14.23v4.23h-9.19v6.44H299v4.11h-8.72v7.1h9.19v4.3Z"/><path class="cls-1" d="M22.74,22.63,25,25.51l1.63-1.26L23,19.57l-1.27,1c.5.78-.22,1.73-1.12,2.41l.65.84Z"/><path class="cls-1" d="M28.63,19.94a1.55,1.55,0,0,1,.93-1c.71-.37,1.3-.22,1.57.29s-.08,1.11-.75,1.45c-.52.27-1.26.34-1.48-.07l-1.73.89c.75,1.21,2.19,1,3.74.22s2.58-2.14,1.92-3.44c-.57-1.09-1.81-1.24-3.27-.49a2.71,2.71,0,0,0-1.19,1.09h0l-.23-1.09,3.15-1.62-.56-1.09-4.48,2.3.84,3.33Z"/><path class="cls-1" d="M66.18,18.12a2.66,2.66,0,0,0-1.58-.32h0l.75-.83,3.16,1.59L69,17.46l-4.5-2.27-2.2,2.63,1.57.8a1.52,1.52,0,0,1,1.34.17c.72.36,1,.92.69,1.44s-.94.59-1.62.25c-.52-.27-1-.82-.81-1.24l-1.74-.88c-.53,1.32.47,2.38,2,3.16s3.26.83,3.91-.47C68.26,20,67.64,18.86,66.18,18.12Z"/><path class="cls-1" d="M73.34,20.38c-1.31-1-3-1.18-3.72-.18s-.37,2.25.88,3.22a2.31,2.31,0,0,0,1.8.59h0a1.4,1.4,0,0,1-2.09.28,1.62,1.62,0,0,1-.46-.52.64.64,0,0,1,0-.57L68.28,22.1c-.45,1,.07,2.08,1.22,3,2,1.56,3.66,1,4.7-.37S75.18,21.8,73.34,20.38Zm-.2,2.51c-.33.42-1,.46-1.65-.05s-.75-1.12-.41-1.56a1.13,1.13,0,0,1,1.57,0C73.31,21.84,73.46,22.48,73.14,22.89Z"/><path class="cls-1" d="M8.05,44.62c1,.35,1.8-.66,2.4-1.7s1.06-2.14,1.51-2,.31.71.16,1.14c-.2.62-.59,1.23-1.1,1l-.67,2c1.3.41,2.37-1,2.88-2.5s.55-3.32-.7-3.74c-1.06-.35-1.81.69-2.41,1.72s-1.07,2.12-1.58,1.95-.38-.83-.17-1.43c.28-.86.68-1.35,1.37-1.17l.68-2c-1.48-.47-2.58.91-3.17,2.69S6.59,44.14,8.05,44.62Z"/><path class="cls-1" d="M7.38,54.81l.17-2.12c-.69-.14-1.07-.74-1-1.73A1.72,1.72,0,0,1,8.5,49.2a1.71,1.71,0,0,1,1.64,2c-.07.89-.44,1.51-1.06,1.58l-.16,2.12c1.46.06,2.44-1.79,2.57-3.55.19-2.46-1.08-4.17-2.83-4.3S5.39,48.43,5.2,50.9C5,53,5.84,54.58,7.38,54.81Z"/><polygon class="cls-1" points="12.04 61.65 9.87 62.02 9.39 59.26 11.57 58.88 11.21 56.78 5.24 57.81 5.6 59.91 8.06 59.49 8.53 62.25 6.08 62.68 6.44 64.77 12.41 63.75 12.04 61.65"/><path class="cls-1" d="M14.56,68.87c-1.05-2.35-2.92-3.1-4.52-2.39s-2.29,2.62-1.23,5,2.92,3.11,4.52,2.39S15.62,71.22,14.56,68.87Zm-2.1,3a1.73,1.73,0,0,1-2.42-1,1.72,1.72,0,0,1,.87-2.47,1.72,1.72,0,0,1,2.42,1A1.72,1.72,0,0,1,12.46,71.9Z"/><polygon class="cls-1" points="18.32 75.57 17.03 73.87 12.21 77.54 15.81 82.27 16.89 81.45 14.59 78.42 18.32 75.57"/><path class="cls-1" d="M16.93,83.58,18.59,85l1.09-.49,2.17,1.86-.33,1.15L23.21,89l1.62-6.58L23.19,81Zm5.3,1.58L20.82,84l2.08-1,0,0Z"/><path class="cls-1" d="M40.06,90.91c.84.18,1.45.62,1.42,1.15l2.08.43c.12-1.53-1.52-2.55-3.18-2.9-2.42-.5-4.27.55-4.63,2.27s.93,3.41,3.35,3.91a3.21,3.21,0,0,0,2.39-.31v.68l1.35.28.67-3.25-3.36-.7-.24,1.15,1.46.3c-.23.52-1,.73-2,.51a1.8,1.8,0,1,1,.73-3.52Z"/><polygon class="cls-1" points="48.84 95.17 48.78 94.02 52.79 93.81 52.72 92.59 48.72 92.8 48.67 91.74 53.05 91.52 52.98 90.25 46.48 90.58 46.78 96.63 53.41 96.3 53.34 94.94 48.84 95.17"/><polygon class="cls-1" points="60.08 88.38 61.19 91.94 61.17 91.95 57.35 89.23 55.26 89.88 57.06 95.66 58.97 95.07 57.85 91.46 57.87 91.45 61.71 94.21 63.8 93.56 61.99 87.78 60.08 88.38"/><polygon class="cls-1" points="68.49 89.6 67.89 88.62 71.29 86.52 70.65 85.48 67.24 87.58 66.69 86.68 70.42 84.38 69.75 83.3 64.21 86.72 67.39 91.88 73.03 88.39 72.32 87.24 68.49 89.6"/><polygon class="cls-1" points="74.82 78.53 76.89 82.84 76.87 82.86 72.55 80.82 70.98 82.4 77.09 84.83 78.82 83.1 76.39 76.95 74.82 78.53"/><polygon class="cls-1" points="82.47 76.21 81.49 75.61 83.57 72.19 82.52 71.55 80.44 74.98 79.54 74.43 81.81 70.68 80.73 70.02 77.35 75.59 82.53 78.73 85.97 73.06 84.81 72.36 82.47 76.21"/><polygon class="cls-1" points="83.16 63.07 86.73 64.15 86.72 64.17 82.33 65.81 81.7 67.91 87.5 69.65 88.08 67.74 84.46 66.65 84.47 66.63 88.9 64.99 89.53 62.9 83.74 61.15 83.16 63.07"/><path class="cls-1" d="M88.54,52.24c-1.09,0-1.55,1.13-1.85,2.29s-.43,2.36-.9,2.34-.49-.6-.47-1.06c0-.65.24-1.34.78-1.28l.1-2.13c-1.37,0-2,1.56-2.1,3.19s.37,3.35,1.7,3.41c1.11,0,1.55-1.16,1.85-2.31s.45-2.33,1-2.31.59.69.56,1.33c0,.9-.29,1.49-1,1.5l-.09,2.13c1.55.06,2.23-1.57,2.32-3.45S90.07,52.31,88.54,52.24Z"/><rect class="cls-1" x="83.86" y="47.22" width="6.06" height="2.13" transform="matrix(0.99, -0.14, 0.14, 0.99, -6, 12.9)"/><path class="cls-1" d="M85,44.71c1-.36,1-1.65.88-2.83s-.44-2.34.07-2.51.8.43,1,1c.29.86.27,1.5-.39,1.77l.69,2c1.47-.52,1.5-2.29.89-4.06s-1.62-3.21-3.07-2.71c-1,.35-1,1.61-.88,2.81s.45,2.34,0,2.5-.67-.38-.82-.81c-.21-.62-.27-1.34.26-1.48l-.69-2c-1.29.46-1.31,2.19-.78,3.73S83.75,45.14,85,44.71Z"/><path class="cls-1" d="M28.65,88.89a1.46,1.46,0,0,0,.28,2,1.45,1.45,0,1,0-.28-2Z"/><path class="cls-1" d="M16.83,31.2a1.45,1.45,0,1,0-2,.31A1.44,1.44,0,0,0,16.83,31.2Z"/><path class="cls-1" d="M78.28,29.49a1.45,1.45,0,1,0,2-.31A1.45,1.45,0,0,0,78.28,29.49Z"/><polygon class="cls-1" points="51.24 13.74 50.06 15.58 52.94 15.58 52.94 14.69 51.8 14.69 52.43 13.76 51.8 12.79 52.92 12.78 52.92 11.9 50.06 11.9 51.24 13.74"/><polygon class="cls-1" points="45.03 14.69 44.32 14.7 44.32 12.78 44.98 12.79 44.98 11.9 42.62 11.9 42.62 12.79 43.28 12.78 43.28 14.7 42.58 14.69 42.58 15.58 45.03 15.58 45.03 14.69"/><polygon class="cls-1" points="48.38 13.2 46.88 13.2 46.89 11.89 45.79 11.89 45.79 15.58 46.89 15.58 46.88 14.11 48.38 14.11 48.38 15.58 49.47 15.58 49.47 11.89 48.38 11.89 48.38 13.2"/><path class="cls-1" d="M47.17,9.71a.45.45,0,0,1,.49-.45.44.44,0,0,1,.45.45l0,1.31h2V9.92H48.92V9.64c0-.78-.37-1.41-1.26-1.41a1.14,1.14,0,0,0-1.24,1,3.1,3.1,0,0,0,0,.43v.22H45.14V11h2Z"/><path class="cls-1" d="M47.66,16.44a.66.66,0,1,0,.66.66A.66.66,0,0,0,47.66,16.44Z"/><path class="cls-1" d="M57.81,7.69l1-1.19-5.65.83L54,1.74,49.57,5.35,47.53,0,45.48,5.35,41,1.74l.9,5.66-5.66-.91,1,1.21a47.42,47.42,0,1,0,20.54,0ZM47.63,6.53a6.5,6.5,0,1,1-6.5,6.5A6.5,6.5,0,0,1,47.63,6.53Zm6,14.71A33.29,33.29,0,0,1,71.75,31.1h-3v2.28H65.93V31.1H62.16v3.14H59.93s0-4.78,0-4.82a2,2,0,1,0-3.9,0s0,25.32,0,25.32L52.19,58.3v1.88A5.08,5.08,0,0,0,48.36,63V24.43l1.29-3.74L54,24.24Zm1.8,54.61a2.58,2.58,0,0,0,.94,5h3.26a2.58,2.58,0,0,0,.94-5,11.31,11.31,0,0,0,7.59-10.66,5.07,5.07,0,0,0-4.35-5V58.3l-3.87-3.56V47.31h2.23v3.14h3.77V48.08H68.7v2.37h3.78V42.06H68.7v2H65.93v-2H62.8V39.49h3.13v-2H68.7v2h3.78v-7.6A33.28,33.28,0,0,1,48.36,87.26V68.55A11.33,11.33,0,0,0,55.42,75.85Zm-5-10.66a2.47,2.47,0,0,1,2-2.43,2.77,2.77,0,0,0,2.75,2.59h5.54a2.77,2.77,0,0,0,2.75-2.59,2.49,2.49,0,0,1,2,2.43c0,4.66-3.22,7.48-7.55,8.55C53.66,72.67,50.45,69.85,50.45,65.19ZM25.28,40.49a1.27,1.27,0,0,0-.14,1.44H16.52c.38-1,.8-1.92,1.27-2.85Zm-5.43-5A33.17,33.17,0,0,1,23.1,31.4a10.63,10.63,0,0,0,3.63,5.38,1.24,1.24,0,0,0-.55.62,1.27,1.27,0,0,0-.08.54Zm-3.1,11.06L25.36,45a1.25,1.25,0,0,0,.06.71,1.5,1.5,0,0,0,.25.4l-8.48,3.3a2.36,2.36,0,0,0-.84,3.28,2.35,2.35,0,0,0,3.24.76L27,48.83a1.37,1.37,0,0,0,.31.64,1.49,1.49,0,0,0,.38.28L21,55.89a2.35,2.35,0,1,0,3.7,2.91l5.34-7.07a1.22,1.22,0,0,0,.5.48,1.2,1.2,0,0,0,.37.1l.07.06-3.72,7.5a2.28,2.28,0,1,0,4.36,1.34l2.15-7.52a10.06,10.06,0,0,0,2.92.43,7.87,7.87,0,0,0,2.13-.26c0,1.36,0,2.65,0,2.77L32,64.05c-1.17,1-1.6,1-2.36.25l-.22-.22-2.08,1.63.29.28a4,4,0,0,0,2.51,1.42l-2.89,1.52L25.38,67a2.82,2.82,0,0,0-5.63.16v.14l1.08,1.09v-.86a.72.72,0,0,1,1.22-.5l1.38,1.51h0l.22.23.27.29h0l.63.64h-.81a2.8,2.8,0,0,0-1.9-.65,2.82,2.82,0,0,0-2.66,2.32A33,33,0,0,1,14.26,54a33.64,33.64,0,0,1,.92-7.76A1.83,1.83,0,0,0,16.75,46.59Zm3.84,26.27a.88.88,0,0,1,.24-.6.87.87,0,0,1,.63-.29h2a3.49,3.49,0,0,0-2.36,1.85,4,4,0,0,1-.53-.94Zm2.58,3a.72.72,0,0,1,.32-.44L27.74,73l1.19,1.23h0l.29.27.22.23v0L31,76.09a.71.71,0,0,1,0,1,.75.75,0,0,1-.51.21h-.85l1.08,1.07h.15a2.76,2.76,0,0,0,2-.82A2.81,2.81,0,0,0,31,72.75l-1-1L43.5,63.1c-.37,4.13-3.93,9-7.28,11.86a6.71,6.71,0,0,0-2.13,4.74,4.39,4.39,0,0,0,1.14,3.11,2,2,0,0,0,2.23.44l.48-.21-.37-.36a3.61,3.61,0,0,1-.81-2.41,4.06,4.06,0,0,1,1.15-3.15c.16.16.5.49,1,1a7.54,7.54,0,0,0-.47,2.55A5.85,5.85,0,0,0,40,84.76c.2.2,2.35,2,3.25,1.68l.65-.22-.55-.4a8.79,8.79,0,0,1-1.68-2.14,4.74,4.74,0,0,1-.44-2,5.19,5.19,0,0,1,1.55-3.61c.06-.09,2.41-5.89,3.61-8.69v.55c0,.66,0,1.31,0,1.95,0,3.38-.21,6.38-1.69,7.86A7.12,7.12,0,0,1,42,81.15l.44.53a2.69,2.69,0,0,0,1.91,1.18,1.54,1.54,0,0,0,.73-.29c.06,2.65.56,3.69,1.45,4.68a33.2,33.2,0,0,1-22.71-9.91l-.6-1a.76.76,0,0,1-.11-.38A.88.88,0,0,1,23.17,75.82ZM41,28.51l.8-1.36H38.52l.39-1.42a1.23,1.23,0,0,0-1.71-1.14,1.56,1.56,0,0,0,0-.33.82.82,0,0,0-.82-.82.82.82,0,0,0-.81.82,1.47,1.47,0,0,0,0,.33,1.19,1.19,0,0,0-.46-.1A1.24,1.24,0,0,0,34,25.73l.38,1.42h-.87a1.23,1.23,0,0,0-1.21,1,2.12,2.12,0,0,0-.57-.08,2,2,0,0,0-2,2,2.11,2.11,0,0,0,.24,1A2.06,2.06,0,0,1,31.69,30a2,2,0,0,1,1.67.88l.12.19a2.28,2.28,0,0,1,.2.64H29.57a2,2,0,0,1-2-2V31a2,2,0,0,0,2,2h3.89a2,2,0,0,1-1.77,1.05h-.12a2,2,0,0,0,3.57-.43h5.51a2,2,0,0,1,2,2,2.51,2.51,0,0,1-.51,1.82l-.51.76-3.47,5.35a2,2,0,0,1-2.83.54,2.1,2.1,0,0,1-.54-2.87,2.18,2.18,0,0,0,1-2.34A2.27,2.27,0,0,0,33.33,37h-.68a7.81,7.81,0,0,1-8-7.11,33.16,33.16,0,0,1,16.91-8.66l-.48,3,4.42-3.59,1.49,3.83v5.94Zm6.54,70a44.57,44.57,0,0,1-8.3-88.37l.63.76-5.36,2,5.35,2-3.61,4.45,5.66-.9-.19,1.17a34.71,34.71,0,1,0,11.67,0l-.16-1.15,5.52.89L55.31,15l5.21-2-5.27-2.15.55-.68a44.58,44.58,0,0,1-8.23,88.39Z"/><rect class="cls-1" x="95.12" y="98.34" width="229.71" height="1.43"/><path class="cls-1" d="M114.91,116.75v3.4h4.26v2.09h-4.26v5.54h-2.54V114.61h7v2.14Z"/><path class="cls-1" d="M130.65,127.78l-.92-2.69h-5l-.92,2.69h-2.55l4.6-13.17h2.87l4.71,13.17Zm-2.81-8.16a15.42,15.42,0,0,1-.61-2.11h0a22.69,22.69,0,0,1-.62,2.21l-1.19,3.36h3.67Z"/><path class="cls-1" d="M141.48,128c-4.6,0-6.09-3.07-6.09-6.35,0-4.17,2.19-7.1,6.6-7.1a11.11,11.11,0,0,1,2.79.35l-.27,2.3a9.56,9.56,0,0,0-2.66-.39c-2.46,0-3.67,1.86-3.67,4.42,0,2.86,1.19,4.47,3.85,4.47a7.07,7.07,0,0,0,2.56-.55l.29,2.26A10,10,0,0,1,141.48,128Z"/><path class="cls-1" d="M153.33,128c-4.15,0-5.09-2.27-5.09-4.78v-8.61h2.54v8.45c0,1.66.54,2.83,2.73,2.83,2,0,2.77-.82,2.77-3.06v-8.22h2.52v8.06C158.8,126.28,156.81,128,153.33,128Z"/><path class="cls-1" d="M162.71,127.78V114.61h2.53v11h4.28v2.22Z"/><path class="cls-1" d="M177.13,116.77v11H174.6v-11h-3.42v-2.16h9.37v2.16Z"/><path class="cls-1" d="M183.38,127.78V114.61h7.17v2.12h-4.63V120h4.39V122h-4.39v3.58h4.63v2.16Zm2.68-14-.86-1.43,3.41-2.15,1,1.72Z"/><path class="cls-1" d="M203.28,127.86c-1.37,0-2.56-.06-3.67-.1V114.63c1,0,2.63-.1,4.25-.1,4.08,0,6.68,1.81,6.68,6.44S207.57,127.86,203.28,127.86Zm.41-11.2a14,14,0,0,0-1.55.06v8.88a9.13,9.13,0,0,0,1.39.1c2.48,0,4.28-1.41,4.28-4.53C207.81,118.33,206.69,116.66,203.69,116.66Z"/><path class="cls-1" d="M213.8,127.78V114.61H221v2.12h-4.63V120h4.39V122h-4.39v3.58H221v2.16Z"/><path class="cls-1" d="M242.58,127.78l-.94-6.28c-.19-1.25-.31-2.23-.41-3.15h0a26.67,26.67,0,0,1-.72,2.82l-2.09,6.61h-2.52l-2-6.11a21.54,21.54,0,0,1-.84-3.32h0c-.08,1.18-.21,2.21-.37,3.36l-.74,6.07h-2.58l2-13.17h3l2.21,6.77a22.16,22.16,0,0,1,.72,2.77h0a18.68,18.68,0,0,1,.74-2.73l2.26-6.81h2.95l2.05,13.17Z"/><path class="cls-1" d="M248.4,127.78V114.61h7.16v2.12h-4.63V120h4.4V122h-4.4v3.58h4.63v2.16Zm2.67-14-.86-1.43,3.42-2.15,1,1.72Z"/><path class="cls-1" d="M262.86,127.86c-1.36,0-2.55-.06-3.67-.1V114.63c1,0,2.64-.1,4.26-.1,4.08,0,6.68,1.81,6.68,6.44S267.16,127.86,262.86,127.86Zm.41-11.2a13.91,13.91,0,0,0-1.54.06v8.88a9,9,0,0,0,1.39.1c2.48,0,4.27-1.41,4.27-4.53C267.39,118.33,266.28,116.66,263.27,116.66Z"/><path class="cls-1" d="M273.39,127.78V114.61h7.16v2.12h-4.62V120h4.39V122h-4.39v3.58h4.62v2.16Z"/><path class="cls-1" d="M289.65,128c-4.61,0-6.09-3.07-6.09-6.35,0-4.17,2.19-7.1,6.6-7.1a11.17,11.17,0,0,1,2.79.35l-.27,2.3a9.56,9.56,0,0,0-2.66-.39c-2.46,0-3.67,1.86-3.67,4.42,0,2.86,1.19,4.47,3.85,4.47a7,7,0,0,0,2.55-.55l.3,2.26A10,10,0,0,1,289.65,128Z"/><path class="cls-1" d="M296.41,127.78V114.61h2.53v13.17Z"/><path class="cls-1" d="M310.48,127.78l-3.86-6.65a29,29,0,0,1-1.43-2.83c.08,1.13.12,3.2.12,4.78v4.7h-2.46V114.61h3.3l3.67,6.28c.6,1,1.13,2.11,1.62,3.11-.1-1.33-.14-3.67-.14-5.29v-4.1h2.46v13.17Z"/><path class="cls-1" d="M317.67,127.78V114.61h7.16v2.12H320.2V120h4.4V122h-4.4v3.58h4.63v2.16Z"/></svg>